<?xml version="1.0" standalone="no"?>
<!DOCTYPE svg PUBLIC "-//W3C//DTD SVG 20010904//EN"
 "http://www.w3.org/TR/2001/REC-SVG-20010904/DTD/svg10.dtd">
<svg version="1.0" xmlns="http://www.w3.org/2000/svg"
 width="1080.000000pt" height="1080.000000pt" viewBox="0 0 1080.000000 1080.000000"
 preserveAspectRatio="xMidYMid meet">

<g transform="translate(0.000000,1080.000000) scale(0.100000,-0.100000)"
fill="#000000" stroke="none">
<path d="M5020 10505 c-771 -60 -1516 -290 -2175 -670 -238 -137 -547 -356
-765 -541 -152 -129 -470 -449 -595 -599 -493 -590 -841 -1260 -1035 -1990
-170 -639 -211 -1332 -119 -2010 226 -1666 1303 -3149 2824 -3890 591 -288
1210 -454 1878 -506 200 -15 729 -6 912 15 840 100 1582 368 2265 821 1064
704 1826 1768 2139 2985 109 422 150 729 158 1187 8 456 -24 794 -118 1213
-413 1861 -1874 3367 -3723 3840 -527 135 -1113 186 -1646 145z m720 -75 c674
-47 1317 -223 1921 -525 1262 -633 2219 -1798 2593 -3157 218 -793 242 -1607
71 -2403 -136 -631 -391 -1228 -757 -1770 -337 -498 -811 -975 -1311 -1320
-576 -397 -1219 -669 -1892 -799 -917 -177 -1849 -102 -2720 221 -892 331
-1681 918 -2272 1693 -316 415 -603 963 -767 1466 -113 348 -179 663 -228
1089 -18 151 -17 800 0 960 51 459 142 862 282 1240 373 1009 1041 1862 1930
2462 550 372 1175 631 1840 763 189 38 469 73 650 83 139 8 529 6 660 -3z"/>
<path d="M5090 10073 c-881 -64 -1653 -327 -2350 -801 -266 -180 -457 -338
-685 -567 -787 -788 -1267 -1822 -1356 -2918 -18 -230 -7 -760 20 -967 166
-1241 775 -2315 1756 -3094 141 -112 443 -314 610 -407 530 -296 1111 -484
1744 -565 160 -21 704 -30 901 -15 423 31 876 133 1298 292 467 177 940 457
1342 795 711 597 1233 1403 1488 2296 316 1101 214 2278 -286 3312 -232 478
-528 893 -912 1276 -796 795 -1811 1264 -2933 1355 -166 13 -508 18 -637 8z
m770 -87 c753 -89 1409 -326 2030 -733 510 -336 964 -787 1308 -1299 553 -828
828 -1854 762 -2846 -54 -803 -307 -1559 -744 -2228 -700 -1069 -1828 -1807
-3086 -2019 -307 -52 -482 -64 -855 -58 -407 7 -647 36 -989 117 -1417 339
-2618 1364 -3181 2714 -350 843 -441 1780 -260 2681 220 1091 828 2063 1720
2748 636 488 1379 797 2182 907 84 12 205 25 270 30 178 13 685 4 843 -14z"/>
<path d="M5065 9604 c-16 -2 -97 -11 -180 -20 -790 -83 -1578 -420 -2216 -949
-804 -665 -1331 -1614 -1479 -2661 -46 -327 -48 -778 -5 -1109 133 -1013 623
-1935 1390 -2615 279 -247 645 -491 953 -637 427 -202 821 -321 1272 -384 237
-33 743 -38 1005 -10 495 53 956 184 1390 396 760 372 1398 968 1816 1696 290
504 466 1042 535 1634 26 213 26 703 1 905 -68 546 -195 977 -422 1432 -327
652 -803 1196 -1402 1602 -571 386 -1185 616 -1873 701 -128 16 -706 30 -785
19z m630 -69 c217 -18 270 -25 490 -70 1070 -215 2014 -849 2626 -1765 643
-962 852 -2145 579 -3275 -147 -610 -438 -1188 -842 -1672 -713 -854 -1718
-1382 -2824 -1483 -174 -16 -684 -8 -854 14 -296 38 -643 120 -905 214 -344
124 -721 322 -1018 533 -261 187 -620 527 -821 779 -111 139 -299 414 -378
555 -227 400 -394 869 -473 1325 -71 416 -79 897 -19 1305 236 1624 1423 2973
2996 3404 478 130 956 176 1443 136z"/>
<path d="M5095 9120 c-665 -58 -1298 -288 -1835 -666 -368 -258 -705 -602
-955 -974 -333 -496 -538 -1045 -612 -1640 -25 -204 -25 -677 0 -875 37 -285
89 -510 177 -769 419 -1228 1453 -2156 2720 -2441 443 -100 980 -113 1435 -35
637 109 1230 380 1745 798 139 113 424 399 534 537 110 137 294 413 375 563
224 414 359 832 427 1322 25 182 30 611 10 800 -42 390 -115 697 -243 1020
-273 690 -734 1273 -1341 1700 -490 345 -1096 575 -1697 646 -153 18 -597 26
-740 14z m641 -61 c545 -52 1080 -225 1520 -489 304 -183 496 -331 730 -565
294 -292 491 -558 673 -906 211 -404 334 -809 397 -1304 27 -212 25 -614 -5
-840 -89 -671 -319 -1237 -725 -1780 -130 -174 -367 -425 -551 -582 -543 -464
-1244 -766 -1970 -849 -183 -21 -606 -24 -775 -6 -629 69 -1194 278 -1715 633
-326 221 -669 560 -908 897 -679 954 -863 2163 -500 3277 387 1187 1393 2124
2596 2420 155 38 397 81 532 94 132 12 574 13 701 0z"/>
<path d="M4965 8694 c-990 -113 -1899 -696 -2430 -1560 -267 -433 -429 -915
-476 -1416 -15 -168 -6 -625 15 -768 127 -839 526 -1555 1168 -2092 354 -296
775 -519 1213 -641 315 -89 549 -120 895 -121 327 -1 575 31 890 115 394 105
858 344 1190 612 588 474 997 1130 1160 1862 141 627 96 1263 -133 1885 -53
145 -205 452 -294 592 -399 636 -1024 1132 -1733 1376 -217 74 -447 126 -700
158 -147 18 -599 17 -765 -2z m600 -34 c1437 -91 2659 -1131 2973 -2531 63
-277 77 -414 76 -729 0 -311 -11 -420 -64 -670 -60 -283 -136 -502 -265 -765
-304 -619 -808 -1135 -1416 -1449 -190 -98 -291 -143 -444 -196 -678 -234
-1426 -238 -2103 -11 -712 237 -1324 721 -1735 1369 -87 136 -232 431 -290
588 -215 579 -261 1220 -131 1824 303 1411 1510 2460 2954 2569 155 12 266 12
445 1z"/>
<path d="M5150 8279 c-148 -13 -286 -37 -452 -78 -629 -157 -1181 -518 -1581
-1034 -299 -384 -499 -848 -573 -1328 -25 -163 -31 -612 -10 -777 79 -621 336
-1170 762 -1629 277 -299 664 -562 1041 -710 625 -244 1300 -267 1936 -67 308
98 655 283 917 491 129 103 398 375 491 498 310 407 501 862 576 1370 22 150
25 601 5 740 -68 474 -217 874 -467 1250 -100 151 -188 258 -330 404 -191 196
-375 343 -591 471 -525 312 -1125 451 -1724 399z m600 -54 c427 -56 816 -196
1162 -418 450 -289 802 -681 1033 -1152 95 -193 141 -311 191 -494 187 -678
118 -1391 -198 -2022 -146 -292 -321 -532 -559 -764 -230 -225 -452 -382 -734
-520 -652 -319 -1381 -378 -2075 -169 -504 153 -982 464 -1324 865 -387 452
-614 981 -676 1569 -14 141 -12 466 5 617 124 1111 919 2060 2000 2388 201 61
404 97 665 119 82 7 403 -5 510 -19z"/>
<path d="M5215 7864 c-16 -2 -73 -9 -125 -15 -695 -78 -1352 -488 -1753 -1094
-199 -300 -339 -677 -382 -1025 -20 -164 -20 -492 0 -647 93 -708 481 -1327
1088 -1736 116 -79 374 -208 522 -263 126 -46 336 -99 485 -121 177 -27 573
-24 735 6 282 51 459 108 700 226 306 149 574 358 797 622 319 377 515 836
568 1331 17 157 7 512 -18 657 -45 254 -110 454 -217 671 -368 746 -1047 1244
-1865 1369 -100 15 -470 28 -535 19z m435 -44 c488 -51 965 -259 1344 -588
293 -255 538 -609 681 -982 47 -123 108 -363 131 -515 26 -178 24 -504 -5
-685 -59 -372 -187 -700 -391 -1005 -88 -132 -159 -218 -283 -343 -392 -399
-908 -649 -1465 -713 -144 -16 -529 -7 -652 16 -703 128 -1273 502 -1653 1085
-361 554 -478 1270 -313 1913 151 589 517 1097 1035 1439 288 190 671 329
1024 372 138 17 410 20 547 6z"/>
<path d="M5180 7444 c-19 -3 -95 -16 -169 -30 -877 -166 -1554 -899 -1650
-1786 -79 -725 230 -1440 809 -1872 252 -188 528 -311 845 -377 128 -26 486
-37 633 -19 473 58 899 271 1233 617 280 291 460 632 538 1023 204 1013 -397
2034 -1385 2353 -217 70 -331 88 -589 92 -126 2 -246 1 -265 -1z m530 -44
c445 -73 803 -255 1121 -570 280 -277 467 -623 553 -1021 145 -667 -75 -1382
-571 -1860 -385 -371 -867 -568 -1398 -572 -681 -5 -1306 325 -1689 891 -185
273 -301 591 -337 923 -14 129 -6 408 15 544 95 598 477 1132 1031 1443 198
111 474 200 710 231 139 17 430 13 565 -9z"/>
<path d="M5200 7064 c-192 -24 -451 -107 -600 -192 -306 -175 -564 -444 -706
-738 -164 -341 -206 -740 -119 -1111 95 -402 344 -763 686 -993 168 -114 348
-192 566 -247 104 -27 118 -28 358 -28 281 0 333 7 536 75 579 192 999 679
1116 1293 27 143 24 457 -6 597 -50 234 -151 470 -278 650 -85 119 -280 316
-396 397 -100 71 -286 168 -397 208 -41 14 -131 40 -200 57 -115 28 -142 31
-325 33 -110 2 -216 1 -235 -1z m502 -43 c588 -118 1060 -533 1248 -1100 96
-287 112 -569 49 -858 -138 -636 -631 -1123 -1282 -1265 -88 -19 -132 -22
-327 -22 -212 0 -232 1 -344 28 -335 79 -567 207 -807 446 -154 154 -236 268
-322 450 -94 197 -139 364 -158 586 -17 198 12 441 76 640 38 115 145 324 223
434 85 121 260 295 382 382 210 149 479 256 740 294 128 18 392 11 522 -15z"/>
<path d="M5170 6646 c-177 -30 -364 -105 -520 -209 -98 -65 -263 -231 -330
-331 -97 -146 -161 -303 -194 -485 -21 -110 -21 -333 0 -442 98 -519 497 -918
1013 -1014 108 -20 322 -20 437 0 510 89 919 491 1021 1002 21 106 23 355 4
453 -96 494 -457 879 -939 1002 -144 36 -354 46 -492 24z m438 -30 c243 -53
456 -169 631 -345 132 -132 226 -283 290 -466 46 -128 61 -212 68 -355 14
-335 -106 -652 -339 -897 -184 -191 -393 -308 -657 -365 -147 -32 -361 -30
-501 5 -248 61 -423 154 -593 317 -187 177 -314 411 -364 670 -24 125 -21 336
7 470 104 503 511 891 1020 975 106 18 336 13 438 -9z"/>
</g>
</svg>
